<?xml version="1.0" encoding="UTF-8"?>
<svg id="Layer_1" data-name="Layer 1" xmlns="http://www.w3.org/2000/svg" viewBox="0 0 512 512">
  <defs>
    <style>
      .cls-1 {
        fill: #bcbcbc;
      }
    </style>
  </defs>
  <path class="cls-1" d="M43.68,128.94C2.92,86.65-.77,72.24.4,60.45,3.63,27.83,48.93-4.83,85.61.59c27.68,4.09,34.67,27.53,106.17,107.07,40.63,45.2,51.22,51.92,64.06,51.87,22.48-.08,33-20.79,84.04-77.81C406.74,7.04,424.03,3.14,434.7,2.79c35.27-1.17,76.31,33.69,76.95,66.3.43,21.91-17.55,34.15-101.44,109.06-57.65,51.48-68.92,63.35-67.63,79.55.7,8.7,4.82,16.12,83.33,73.9,36.01,26.5,77.9,56.41,85.21,96.59.5,2.75.66,4.57.72,5.34,2.94,37.35-35.37,78.61-66.46,78.47-18.36-.08-30.39-14.59-53.42-41.23-104.12-120.45-121.36-128.4-135.93-128.16-9.33.15-17.84,3.68-74.95,66.51-72.8,80.1-84.05,102.05-108.31,102.22-34.35.24-75.14-42.69-72.65-79.14,2.1-30.81,34.06-41.62,120.66-126.36,37.25-36.45,41.09-43.99,41.25-53.36.56-33.32-46.16-48.62-118.34-123.54Z"/>
</svg>